<svg xmlns="http://www.w3.org/2000/svg" viewBox="0 0 1200 900">
  <defs>
    <linearGradient id="bg" x1="0" y1="0" x2="1" y2="1">
      <stop offset="0" stop-color="#fafafa"/>
      <stop offset="1" stop-color="#e5e7eb"/>
    </linearGradient>
    <linearGradient id="shell" x1="0" y1="0" x2="0" y2="1">
      <stop offset="0" stop-color="#9ca3af"/>
      <stop offset="1" stop-color="#6b7280"/>
    </linearGradient>
  </defs>
  <rect width="1200" height="900" rx="64" fill="url(#bg)"/>
  <g transform="translate(250 150)">
    <rect x="230" y="10" width="120" height="80" rx="24" fill="#6b7280" opacity="0.9"/>
    <rect x="150" y="90" width="440" height="560" rx="60" fill="url(#shell)"/>
    <rect x="190" y="130" width="360" height="480" rx="46" fill="#111827" opacity="0.15"/>
    <g opacity="0.22" fill="#111827">
      <path d="M210 220h320v18H210z"/>
      <path d="M210 282h320v18H210z"/>
      <path d="M210 344h320v18H210z"/>
      <path d="M210 406h320v18H210z"/>
      <path d="M210 468h320v18H210z"/>
    </g>
    <g fill="#4b5563">
      <circle cx="220" cy="700" r="26"/>
      <circle cx="520" cy="700" r="26"/>
    </g>
  </g>
  <text x="72" y="132" font-family="ui-sans-serif, system-ui" font-size="42" font-weight="650" fill="#0f172a">Orbit</text>
  <text x="72" y="178" font-family="ui-sans-serif, system-ui" font-size="22" font-weight="500" fill="#52525b">Gris • Sécurisée</text>
</svg>

