<svg xmlns="http://www.w3.org/2000/svg" viewBox="0 0 1200 900">
  <defs>
    <linearGradient id="bg" x1="0" y1="0" x2="1" y2="1">
      <stop offset="0" stop-color="#fafafa"/>
      <stop offset="1" stop-color="#e5e7eb"/>
    </linearGradient>
    <linearGradient id="shell" x1="0" y1="0" x2="0" y2="1">
      <stop offset="0" stop-color="#2f3e2c"/>
      <stop offset="1" stop-color="#1f2a1d"/>
    </linearGradient>
  </defs>
  <rect width="1200" height="900" rx="64" fill="url(#bg)"/>
  <g transform="translate(250 150)">
    <rect x="230" y="10" width="120" height="80" rx="24" fill="#1f2a1d" opacity="0.9"/>
    <rect x="150" y="90" width="440" height="560" rx="60" fill="url(#shell)"/>
    <g opacity="0.20" fill="#e5e7eb">
      <rect x="190" y="150" width="360" height="18" rx="9"/>
      <rect x="190" y="210" width="360" height="18" rx="9"/>
      <rect x="190" y="270" width="360" height="18" rx="9"/>
      <rect x="190" y="330" width="360" height="18" rx="9"/>
      <rect x="190" y="390" width="360" height="18" rx="9"/>
      <rect x="190" y="450" width="360" height="18" rx="9"/>
    </g>
    <g fill="#1f2a1d">
      <circle cx="220" cy="700" r="26"/>
      <circle cx="520" cy="700" r="26"/>
    </g>
  </g>
  <text x="72" y="132" font-family="ui-sans-serif, system-ui" font-size="42" font-weight="650" fill="#0f172a">Terra PC</text>
  <text x="72" y="178" font-family="ui-sans-serif, system-ui" font-size="22" font-weight="500" fill="#52525b">Olive • Résistant</text>
</svg>

